<svg xmlns="http://www.w3.org/2000/svg" viewBox="0 0 48 48" width="48" height="48">
  <path fill="#5865f2" d="M40.63 8.26A39.27 39.27 0 0 0 30.87 5a.15.15 0 0 0-.16.07 27.32 27.32 0 0 0-1.2 2.48 36.27 36.27 0 0 0-10.88 0A25.08 25.08 0 0 0 17.4 5.07a.16.16 0 0 0-.15-.07 39.16 39.16 0 0 0-9.77 3.26.14.14 0 0 0-.07.06C1.08 17.66-.65 26.77.2 35.77a.17.17 0 0 0 .07.11 39.52 39.52 0 0 0 11.9 6.42.16.16 0 0 0 .17-.06 28.44 28.44 0 0 0 2.45-4.26.15.15 0 0 0-.08-.22 26.05 26.05 0 0 1-3.72-1.9.16.16 0 0 1-.02-.26c.25-.2.5-.4.74-.6a.15.15 0 0 1 .16-.02c7.8 3.82 16.25 3.82 23.96 0a.15.15 0 0 1 .16.02c.24.21.49.41.74.6a.16.16 0 0 1-.01.27 24.44 24.44 0 0 1-3.72 1.89.16.16 0 0 0-.08.22 31.93 31.93 0 0 0 2.45 4.26.16.16 0 0 0 .17.06 39.41 39.41 0 0 0 11.92-6.42.16.16 0 0 0 .06-.11c1.02-11.32-1.71-21.15-7.24-29.87a.13.13 0 0 0-.06-.06zM16.05 30.57c-2.42 0-4.41-2.38-4.41-5.3s1.95-5.3 4.41-5.3c2.49 0 4.46 2.41 4.42 5.3 0 2.92-1.96 5.3-4.42 5.3zm16.33 0c-2.42 0-4.41-2.38-4.41-5.3s1.95-5.3 4.41-5.3c2.49 0 4.46 2.41 4.42 5.3 0 2.92-1.93 5.3-4.42 5.3z"/>
</svg>
