<svg xmlns="http://www.w3.org/2000/svg" viewBox="0 0 48 48" width="48" height="48">
  <path fill="#24292f" d="M24 4C12.95 4 4 12.95 4 24c0 8.84 5.73 16.33 13.68 18.98 1 .18 1.37-.43 1.37-.96 0-.47-.02-2.05-.03-3.71-5.56 1.21-6.73-2.35-6.73-2.35-.91-2.31-2.22-2.92-2.22-2.92-1.81-1.24.14-1.21.14-1.21 2 .14 3.06 2.06 3.06 2.06 1.78 3.05 4.68 2.17 5.82 1.66.18-1.29.7-2.17 1.27-2.67-4.44-.5-9.1-2.22-9.1-9.88 0-2.18.78-3.97 2.06-5.37-.21-.5-.89-2.54.2-5.29 0 0 1.68-.54 5.5 2.05A19.14 19.14 0 0 1 24 14.78c1.7.01 3.41.23 5.01.68 3.82-2.59 5.49-2.05 5.49-2.05 1.1 2.75.41 4.79.2 5.29 1.28 1.4 2.06 3.19 2.06 5.37 0 7.68-4.68 9.37-9.13 9.87.72.62 1.36 1.84 1.36 3.71 0 2.68-.02 4.84-.02 5.49 0 .54.36 1.16 1.38.96C38.28 40.32 44 32.83 44 24 44 12.95 35.05 4 24 4z"/>
</svg>
