<svg xmlns="http://www.w3.org/2000/svg" viewBox="0 0 48 48" width="48" height="48">
  <path fill="#fff" d="M36 6H12l-6 6v24l6 6h24l6-6V12z"/>
  <path fill="#1a73e8" d="M36 6l6 6H36V6z"/>
  <path fill="#ea4335" d="M12 6l-6 6h6V6z"/>
  <path fill="#34a853" d="M36 42l6-6H36v6z"/>
  <path fill="#fbbc04" d="M6 36l6 6v-6H6z"/>
  <path fill="#4285f4" d="M36 6h-6v6h6V6z"/>
  <path fill="#ea4335" d="M18 6h-6v6h6V6z"/>
  <path fill="#188038" d="M36 36h6v-6h-6v6z"/>
  <path fill="#1a73e8" d="M6 18v-6h6v6H6z"/>
  <rect x="12" y="12" width="24" height="24" rx="1" fill="#fff"/>
  <path fill="#4285f4" d="M14 20h20v2H14z"/>
  <path fill="#4285f4" d="M14 26h20v2H14z"/>
  <path fill="#4285f4" d="M14 32h14v2H14z"/>
  <path fill="#ea4335" d="M22 14h2v20h-2z"/>
</svg>
