<svg xmlns="http://www.w3.org/2000/svg" viewBox="0 0 48 48" width="48" height="48">
  <path fill="#e01e5a" d="M10 28a4 4 0 1 1 0-8h4v4a4 4 0 0 1-4 4zm14-4a4 4 0 0 1-4-4V10a4 4 0 1 1 8 0v10a4 4 0 0 1-4 4z"/>
  <path fill="#36c5f0" d="M20 10a4 4 0 1 1 8 0v4h-4a4 4 0 0 1-4-4zm4 14a4 4 0 0 1 4-4h10a4 4 0 1 1 0 8H28a4 4 0 0 1-4-4z"/>
  <path fill="#2eb67d" d="M38 20a4 4 0 1 1 0 8h-4v-4a4 4 0 0 1 4-4zM24 24a4 4 0 0 1 4 4v10a4 4 0 1 1-8 0V28a4 4 0 0 1 4-4z"/>
  <path fill="#ecb22e" d="M28 38a4 4 0 1 1-8 0v-4h4a4 4 0 0 1 4 4zm-4-14a4 4 0 0 1-4 4H10a4 4 0 1 1 0-8h10a4 4 0 0 1 4 4z"/>
</svg>
