<svg xmlns="http://www.w3.org/2000/svg" viewBox="0 0 48 48" width="48" height="48">
  <path fill="#25d366" d="M24 4C12.95 4 4 12.95 4 24c0 3.54.93 6.87 2.55 9.75L4 44l10.56-2.77A19.88 19.88 0 0 0 24 44c11.05 0 20-8.95 20-20S35.05 4 24 4z"/>
  <path fill="#fff" d="M34.6 29.3c-.45-.22-2.67-1.32-3.08-1.47-.42-.15-.72-.22-1.02.23-.3.44-1.18 1.47-1.45 1.77-.27.3-.53.34-.99.11-.45-.22-1.9-.7-3.62-2.23-1.34-1.19-2.24-2.66-2.5-3.11-.27-.45-.03-.7.2-.92.2-.2.45-.53.68-.79.22-.27.3-.45.45-.75.15-.3.08-.56-.04-.79-.11-.22-1.02-2.45-1.39-3.36-.37-.88-.74-.76-1.02-.77-.27-.01-.57-.02-.87-.02s-.79.11-1.2.56c-.42.45-1.59 1.55-1.59 3.78s1.63 4.39 1.85 4.69c.23.3 3.2 4.88 7.75 6.85 1.08.47 1.93.75 2.59.96 1.09.35 2.08.3 2.86.18.87-.13 2.67-1.09 3.05-2.14.38-1.06.38-1.96.27-2.15-.12-.19-.42-.3-.87-.53z"/>
</svg>
